Coordinates
version=1
nRows=14
nColumns=24
inDegrees=yes

Units are S.I. units (second, meters, Newtons, ...)
Angles are in degrees.

endheader
time	pelvis_tilt	pelvis_list	pelvis_rotation	pelvis_tx	pelvis_ty	pelvis_tz	hip_flexion_r	hip_adduction_r	hip_rotation_r	knee_angle_r	ankle_angle_r	subtalar_angle_r	mtp_angle_r	hip_flexion_l	hip_adduction_l	hip_rotation_l	knee_angle_l	ankle_angle_l	subtalar_angle_l	mtp_angle_l	lumbar_extension	lumbar_bending	lumbar_rotation
      1.49766667	     -2.99210818	      5.51404221	     -3.18494222	      0.39126263	      0.89509098	      0.34179759	     15.57717960	     -8.41858795	     -6.37396633	    -70.02653494	      6.62025309	      4.99759853	      5.97205461	     17.29224504	      8.75913251	     -5.04427608	    -23.75894884	     11.59419688	     -7.68434877	      0.22355890	     -2.10202239	     -9.20929903	      5.37134452
      1.50183333	     -2.93175544	      5.40576790	     -3.03915717	      0.39610731	      0.89634220	      0.34162293	     16.18068664	     -8.24930953	     -6.43415308	    -69.71719750	      7.19616855	      4.92670176	      5.85069023	     16.60634337	      8.72232471	     -4.86811306	    -23.23509544	     11.62343767	     -7.56202529	      0.26427219	     -2.20695174	     -9.09869572	      5.13158668
      1.50600000	     -2.86133626	      5.29137374	     -2.88038469	      0.40094861	      0.89759233	      0.34142600	     16.75569323	     -8.07930022	     -6.50910331	    -69.35008275	      7.73721238	      4.85510644	      5.71498877	     15.90548673	      8.68164210	     -4.67023097	    -22.70126414	     11.63973080	     -7.45218417	      0.30929090	     -2.32351478	     -8.98152680	      4.86712446
      1.51016667	     -2.80811935	      5.16760407	     -2.70786518	      0.40575814	      0.89878403	      0.34121642	     17.33622711	     -7.89865232	     -6.59413197	    -68.93001309	      8.26788815	      4.73543862	      5.65056440	     15.23754834	      8.62537615	     -4.47341066	    -22.19259754	     11.64965081	     -7.31357249	      0.33344301	     -2.43270222	     -8.84965237	      4.69566703
      1.51433333	     -2.69169968	      5.04610790	     -2.53239888	      0.41061768	      0.90006466	      0.34097333	     17.82233912	     -7.74273273	     -6.70198081	    -68.44219727	      8.71387423	      4.68356904	      5.52913308	     14.46812773	      8.58241147	     -4.23843161	    -21.61781439	     11.67116360	     -7.23791621	      0.37232554	     -2.59147252	     -8.71648542	      4.35156179
      1.51850000	     -2.60156715	      4.91717094	     -2.33874052	      0.41543611	      0.90126881	      0.34071639	     18.32473701	     -7.57725371	     -6.82070748	    -67.90745418	      9.15248159	      4.57832468	      5.39657423	     13.74271103	      8.52761235	     -3.98519273	    -21.06778651	     11.66834672	     -7.16581596	      0.41336023	     -2.73527800	     -8.57436710	      4.05183966
      1.52266667	     -2.51762644	      4.77556207	     -2.12836031	      0.42023079	      0.90242342	      0.34044470	     18.81679213	     -7.40044526	     -6.95164747	    -67.32248285	      9.59005189	      4.43845940	      5.31423566	     13.03856199	      8.45273067	     -3.73082137	    -20.54668840	     11.65601532	     -7.05303138	      0.43923594	     -2.88605964	     -8.42272331	      3.83172352
      1.52683333	     -2.39425848	      4.64407206	     -1.92716383	      0.42508281	      0.90361773	      0.34014497	     19.24612635	     -7.25142764	     -7.09201568	    -66.67622936	      9.92183409	      4.31593629	      5.18386084	     12.26171066	      8.39364558	     -3.46260383	    -19.96343183	     11.66961158	     -7.01440354	      0.47557304	     -3.04473499	     -8.26335587	      3.47594030
      1.53100000	     -2.29825258	      4.49262469	     -1.69330487	      0.42986087	      0.90472918	      0.33984190	     19.68731884	     -7.07612254	     -7.24901671	    -65.98090787	     10.28409107	      4.14361684	      5.08843777	     11.54582813	      8.30509671	     -3.17054928	    -19.43657771	     11.64380603	     -6.92850018	      0.50163614	     -3.21172203	     -8.10381074	      3.22031095
      1.53516667	     -2.17768335	      4.35321159	     -1.47622378	      0.43467600	      0.90583961	      0.33952587	     20.08976148	     -6.92394582	     -7.39890497	    -65.23632394	     10.55338458	      3.97127876	      4.96055645	     10.78257475	      8.22874264	     -2.87889315	    -18.86514981	     11.65024927	     -6.89526333	      0.53365256	     -3.37942640	     -7.93911258	      2.87106442
      1.53933333	     -2.06015579	      4.21609976	     -1.24297128	      0.43949076	      0.90689534	      0.33918252	     20.47914089	     -6.78708261	     -7.57233894	    -64.45174202	     10.81068011	      3.76582936	      4.80521507	     10.02706286	      8.15074161	     -2.57943916	    -18.29776697	     11.63599406	     -6.87638973	      0.57052172	     -3.54224895	     -7.75789934	      2.52133786
      1.54350000	     -1.95543800	      4.08701338	     -0.99650326	      0.44426561	      0.90788575	      0.33883122	     20.87077824	     -6.65945685	     -7.74395614	    -63.62775266	     11.06324535	      3.54064524	      4.53716162	      9.29069620	      8.07997096	     -2.23775463	    -17.72919677	     11.56795580	     -6.89456426	      0.63121832	     -3.70665527	     -7.61463593	      2.10553800
      1.54766667	     -1.84519907	      3.91117498	     -0.73932070	      0.44905329	      0.90886101	      0.33848911	     21.22060155	     -6.48061079	     -7.93895001	    -62.72118023	     11.24364685	      3.29076990	      4.43783381	      8.57442997	      7.94002931	     -1.95010881	    -17.22431775	     11.58642263	     -6.80129502	      0.65496394	     -3.86612937	     -7.41188600	      1.92410335
      1.55183333	     -1.72782655	      3.79185765	     -0.50269737	      0.45382572	      0.90977076	      0.33813764	     21.57483064	     -6.36869407	     -8.09979591	    -61.81413225	     11.38975236	      3.00934273	      4.17747344	      7.81956168	      7.86763217	     -1.61335373	    -16.63664441	     11.54632692	     -6.83627360	      0.71226397	     -4.04312997	     -7.25536820	      1.45610307
